# Blender v2.78 (sub 0) OBJ File: 'Mockup4.blend'
# www.blender.org
o Sphere
v -0.002126 7.251141 -2.225366
v -0.040483 6.103966 -5.225595
v -0.033953 3.905423 -6.820736
v 0.046699 -0.017471 -7.147078
v 0.036126 -2.789643 -6.591897
v -0.004217 -5.382189 -5.229411
v -0.057885 -6.816280 -2.732640
v 0.870035 7.232145 -2.083253
v 2.052429 6.141292 -4.867218
v 2.667304 3.885034 -6.244507
v 2.777850 0.042536 -6.597307
v 2.619906 -2.941555 -6.337231
v 1.975081 -5.403311 -4.803662
v 1.059480 -7.053083 -2.608354
v 1.579180 7.217848 -1.582200
v 3.577116 5.850248 -3.603511
v 4.734833 3.794706 -4.653065
v 5.246093 -0.011312 -5.201987
v 4.838147 -2.933748 -4.755886
v 3.610726 -5.202057 -3.584622
v 1.933337 -6.860010 -1.966557
v 2.126932 7.336012 -0.874065
v 4.850911 6.180886 -2.004649
v 6.390623 3.828602 -2.604203
v 6.632243 -0.018748 -2.766494
v 6.377141 -2.946779 -2.583828
v 4.676741 -5.297954 -1.913984
v 2.515872 -6.817352 -1.073285
v 2.320082 7.332536 -0.011647
v 5.254807 6.180800 -0.074150
v 6.898494 3.856136 -0.004278
v 7.182628 -0.027637 0.047082
v 6.903498 -2.979185 -0.091498
v 5.242170 -5.388688 -0.044138
v 2.766515 -6.878822 -0.008794
v 2.104963 7.244449 0.861167
v 4.734658 5.945226 1.945899
v 6.342408 3.913010 2.687482
v 6.634534 0.018398 2.676136
v 6.362020 -2.942697 2.615445
v 4.822882 -5.416382 1.995615
v 2.632820 -7.134259 1.132871
v 1.624682 7.313468 1.599412
v 3.723976 6.131067 3.684085
v 4.870403 3.840191 4.878679
v 5.021550 -0.007963 5.023291
v 4.723713 -2.814724 4.597699
v 3.710287 -5.393860 3.661215
v 2.042705 -7.078170 2.008651
v 0.876492 7.310232 2.110191
v 2.034867 6.086481 4.848940
v 2.522958 3.732050 6.020036
v 2.851705 -0.006502 6.867324
v 2.699502 -2.887991 6.322581
v 1.919970 -5.177218 4.665967
v 1.076843 -7.064221 2.580256
v -0.016855 7.275172 2.270400
v 0.004889 6.067458 5.212148
v -0.009638 3.870476 6.878317
v -0.019266 -0.018382 7.384089
v -0.048563 -2.955789 6.812439
v -0.068426 -5.272506 4.984387
v 0.047086 -7.162373 2.775782
v -0.895795 7.293157 2.090540
v -2.019206 6.108131 4.818683
v -2.450313 3.816302 6.051094
v -2.680633 0.016992 6.542318
v -2.515954 -2.899542 6.055924
v -1.994772 -5.250974 4.598959
v -1.140296 -7.147504 2.565988
v -1.623662 7.271958 1.586143
v -3.731258 6.093938 3.629439
v -4.847630 3.922408 4.790964
v -5.255700 0.040135 5.206130
v -4.735860 -2.812608 4.575685
v -3.596110 -5.194357 3.499311
v -2.019022 -7.054303 2.002920
v -0.001409 -7.648121 -0.012069
v -2.112959 7.282411 0.878670
v -4.845322 6.160421 2.070245
v -6.309311 3.846325 2.627840
v -6.657992 0.025945 2.753801
v -6.160655 -2.884739 2.520162
v -4.827247 -5.421954 2.015592
v -2.578021 -6.867340 1.032357
v -2.253365 7.200409 0.015031
v -5.110652 5.959960 -0.014854
v -6.588987 3.774199 -0.058947
v -7.416605 0.009876 -0.038077
v -6.596618 -2.774719 -0.044084
v -5.247555 -5.458858 -0.027782
v -2.766907 -6.890083 0.011227
v -2.094671 7.213112 -0.852296
v -4.834863 6.086833 -2.005088
v -6.333981 3.832583 -2.562890
v -6.614643 0.031544 -2.763661
v -6.337335 -2.972419 -2.572780
v -4.654927 -5.210871 -1.896663
v -2.497402 -6.836538 -1.047092
v -1.600615 7.252217 -1.575602
v -3.720217 6.116773 -3.678498
v -4.698191 3.814339 -4.683056
v -5.089907 0.006157 -5.079243
v -4.837020 -2.945283 -4.816404
v -3.699769 -5.517030 -3.667623
v -2.053444 -7.107282 -2.002534
v -0.854864 7.261400 -2.041279
v -1.905788 5.915464 -4.636221
v -2.660327 3.873275 -6.325138
v -2.814712 0.028906 -6.765121
v -2.632392 -2.955332 -6.249011
v -1.944865 -5.302839 -4.659900
v -1.111964 -7.049049 -2.634093
v 0.000167 7.534077 -0.114811
v 0.044175 7.534077 -0.106136
v 0.081791 7.534077 -0.081307
v 0.106955 7.534077 -0.044103
v 0.115836 7.534077 -0.000188
v 0.107083 7.534077 0.043753
v 0.082027 7.534077 0.081029
v 0.044483 7.534077 0.105965
v 0.000167 7.534077 0.114766
v -0.044174 7.534077 0.106092
v -0.081791 7.534077 0.081263
v -0.106955 7.534077 0.044058
v -0.115836 7.534077 0.000143
v -0.107083 7.534077 -0.043797
v -0.082027 7.534077 -0.081073
v -0.044483 7.534077 -0.106010
v 0.000000 7.501778 -0.139714
v -0.120976 7.501778 -0.069869
v -0.120976 7.501778 0.069823
v 0.000000 7.501778 0.139669
v 0.120976 7.501778 0.069823
v 0.120976 7.501778 -0.069869
v 0.086192 7.850376 -0.139714
v -0.034785 7.850376 -0.069869
v -0.034785 7.850376 0.069823
v 0.086192 7.850376 0.139669
v 0.207168 7.850376 0.069823
v 0.207168 7.850376 -0.069869
v 0.329444 8.750601 -0.139714
v 0.208468 8.750601 -0.069868
v 0.208468 8.750601 0.069823
v 0.329444 8.750601 0.139669
v 0.450421 8.750601 0.069823
v 0.450421 8.750601 -0.069868
v 0.645697 9.936550 -0.139714
v 0.524721 9.936550 -0.069868
v 0.524721 9.936550 0.069823
v 0.645697 9.936550 0.139669
v 0.766674 9.936550 0.069823
v 0.766674 9.936550 -0.069868
v 1.070662 10.895192 -0.139714
v 1.003574 10.995863 -0.069868
v 1.003574 10.995863 0.069823
v 1.070662 10.895192 0.139669
v 1.137749 10.794522 0.069823
v 1.137749 10.794522 -0.069868
v 1.538251 11.206800 -0.139714
v 1.541867 11.327723 -0.069868
v 1.541867 11.327723 0.069823
v 1.538251 11.206800 0.139669
v 1.534636 11.085877 0.069823
v 1.534636 11.085877 -0.069868
v 2.758962 11.170300 -0.139714
v 2.762578 11.291224 -0.069868
v 2.762578 11.291224 0.069823
v 2.758962 11.170300 0.139669
v 2.755347 11.049378 0.069823
v 2.755347 11.049378 -0.069868
vt 0.8820 0.8356
vt 0.7785 0.7966
vt 0.7992 0.7508
vt 0.1037 0.0626
vt 0.2096 0.0626
vt 0.2096 0.1258
vt 0.1037 0.1258
vt 0.3165 0.0626
vt 0.4565 0.0626
vt 0.4565 0.1258
vt 0.3165 0.1258
vt 0.5552 0.0626
vt 0.6699 0.0626
vt 0.6699 0.1258
vt 0.5552 0.1258
vt 0.0000 0.0626
vt 0.0000 0.1258
vt 0.6699 0.1884
vt 0.5552 0.1884
vt 0.1037 0.1884
vt 0.0000 0.1884
vt 0.3165 0.1884
vt 0.2096 0.1884
vt 0.4565 0.1884
vt 0.8324 0.7203
vt 0.1037 0.2507
vt 0.0000 0.2507
vt 0.3165 0.2507
vt 0.2096 0.2507
vt 0.5552 0.2507
vt 0.4565 0.2507
vt 0.8716 0.7070
vt 0.6699 0.2507
vt 0.9133 0.7111
vt 0.2096 0.3123
vt 0.1037 0.3123
vt 0.4565 0.3123
vt 0.3165 0.3123
vt 0.6699 0.3123
vt 0.5552 0.3123
vt 0.0000 0.3123
vt 0.2096 0.3760
vt 0.1037 0.3760
vt 0.4565 0.3760
vt 0.3165 0.3760
vt 0.6699 0.3760
vt 0.5552 0.3760
vt 0.0000 0.3760
vt 0.9537 0.7346
vt 0.1037 0.4378
vt 0.0000 0.4378
vt 0.3165 0.4378
vt 0.2096 0.4378
vt 0.5552 0.4378
vt 0.4565 0.4378
vt 0.9797 0.7711
vt 0.6699 0.4378
vt 0.3165 0.5007
vt 0.2096 0.5007
vt 0.5552 0.5007
vt 0.4565 0.5007
vt 0.9907 0.8202
vt 0.1037 0.5007
vt 0.6699 0.5007
vt 0.0000 0.5007
vt 0.9866 0.8675
vt 0.2096 0.5643
vt 0.1037 0.5643
vt 0.4565 0.5643
vt 0.3165 0.5643
vt 0.6699 0.5643
vt 0.5552 0.5643
vt 0.0000 0.5643
vt 0.4565 0.6264
vt 0.3165 0.6264
vt 0.6699 0.6264
vt 0.5552 0.6264
vt 0.1037 0.6264
vt 0.0000 0.6264
vt 0.2096 0.6264
vt 0.9670 0.9169
vt 0.1037 0.6892
vt 0.0000 0.6892
vt 0.3165 0.6892
vt 0.2096 0.6892
vt 0.5552 0.6892
vt 0.4565 0.6892
vt 0.9380 0.9494
vt 0.6699 0.6892
vt 0.5552 0.7501
vt 0.4565 0.7501
vt 0.8967 0.9650
vt 0.2096 0.7501
vt 0.1037 0.7501
vt 0.3165 0.7501
vt 0.6699 0.7501
vt 0.0000 0.7501
vt 0.8571 0.9619
vt 0.2096 0.8132
vt 0.1037 0.8132
vt 0.4565 0.8132
vt 0.3165 0.8132
vt 0.6699 0.8132
vt 0.5552 0.8132
vt 0.0000 0.8132
vt 0.6699 0.8743
vt 0.5552 0.8743
vt 0.1037 0.8743
vt 0.0000 0.8743
vt 0.3165 0.8743
vt 0.2096 0.8743
vt 0.4565 0.8743
vt 0.8198 0.9398
vt 0.1037 0.9368
vt 0.0000 0.9368
vt 0.3165 0.9368
vt 0.2096 0.9368
vt 0.5552 0.9368
vt 0.4565 0.9368
vt 0.7887 0.9071
vt 0.6699 0.9368
vt 0.7727 0.8594
vt 0.2096 0.9993
vt 0.1037 0.9993
vt 0.4565 0.9993
vt 0.3165 0.9993
vt 0.6699 0.9993
vt 0.5552 0.9993
vt 0.0000 0.9993
vt 0.1037 0.0000
vt 0.2096 0.0000
vt 0.3165 0.0000
vt 0.4565 0.0000
vt 0.5552 0.0000
vt 0.6699 0.0000
vt 0.0000 0.0000
vt 0.7712 0.8448
vt 0.7483 0.4378
vt 0.7483 0.5007
vt 0.7483 0.5643
vt 0.7483 0.2507
vt 0.7483 0.3123
vt 0.7483 0.7501
vt 0.7483 0.8132
vt 0.7483 0.1884
vt 0.7483 0.8743
vt 0.7483 0.0000
vt 0.7483 0.0626
vt 0.7483 0.6264
vt 0.7483 0.3760
vt 0.7483 0.9368
vt 0.7483 0.9993
vt 0.7483 0.6892
vt 0.7483 0.1258
vt 0.8884 0.1791
vt 0.9231 0.1833
vt 0.9178 0.2573
vt 0.8831 0.2530
vt 0.7818 0.1659
vt 0.8166 0.1702
vt 0.8113 0.2442
vt 0.7765 0.2399
vt 0.8904 0.1506
vt 0.8513 0.1745
vt 0.8534 0.1460
vt 0.9252 0.1549
vt 0.9599 0.1591
vt 0.9579 0.1876
vt 0.9970 0.1637
vt 0.9949 0.1922
vt 0.8186 0.1417
vt 0.7839 0.1374
vt 0.9526 0.2616
vt 0.9456 0.3590
vt 0.9108 0.3547
vt 0.8460 0.2485
vt 0.8761 0.3504
vt 0.8390 0.3459
vt 0.9896 0.2662
vt 0.9826 0.3636
vt 0.9767 0.4468
vt 0.9396 0.4422
vt 0.9049 0.4379
vt 0.8701 0.4336
vt 0.8043 0.3416
vt 0.7695 0.3373
vt 0.7636 0.4205
vt 0.7983 0.4248
vt 0.7951 0.4694
vt 0.7604 0.4651
vt 0.9364 0.4868
vt 0.9017 0.4825
vt 0.8331 0.4290
vt 0.8299 0.4737
vt 0.8229 0.5705
vt 0.7882 0.5663
vt 0.9735 0.4914
vt 0.9665 0.5883
vt 0.9295 0.5837
vt 0.8669 0.4782
vt 0.8221 0.5816
vt 0.8600 0.5751
vt 0.8592 0.5862
vt 0.8213 0.5927
vt 0.8584 0.5973
vt 0.8947 0.5794
vt 0.7534 0.5620
vn -0.0011 -0.9995 -0.0323
vn -0.0120 -0.8959 -0.4440
vn 0.1588 -0.9175 -0.3646
vn -0.0263 -0.6753 -0.7371
vn -0.0049 -0.3373 -0.9414
vn 0.3382 -0.3511 -0.8731
vn 0.2810 -0.7015 -0.6548
vn 0.0178 -0.0364 -0.9992
vn -0.0036 0.3533 -0.9355
vn 0.3838 0.3507 -0.8542
vn 0.3676 -0.0141 -0.9298
vn -0.0415 0.7794 -0.6250
vn -0.0265 0.9641 -0.2640
vn 0.1385 0.9639 -0.2275
vn 0.2923 0.7738 -0.5619
vn 0.1847 0.9537 -0.2374
vn 0.4622 0.7486 -0.4753
vn 0.5314 -0.6982 -0.4797
vn 0.3784 -0.8887 -0.2587
vn 0.7042 -0.0079 -0.7100
vn 0.6622 -0.3742 -0.6492
vn 0.6578 0.3590 -0.6620
vn 0.6258 -0.7185 -0.3034
vn 0.3953 -0.8970 -0.1978
vn 0.9243 -0.0102 -0.3814
vn 0.8577 -0.3610 -0.3661
vn 0.5536 0.7733 -0.3089
vn 0.8573 0.3432 -0.3837
vn 0.1985 0.9654 -0.1688
vn 0.4238 -0.8988 -0.1116
vn 0.9399 -0.3411 -0.0153
vn 0.7039 -0.7086 -0.0489
vn 0.9411 0.3379 0.0117
vn 0.9999 -0.0120 0.0067
vn 0.2503 0.9665 0.0566
vn 0.6269 0.7783 0.0332
vn 0.8590 -0.3287 0.3926
vn 0.6688 -0.6869 0.2843
vn 0.8620 0.3493 0.3674
vn 0.9172 -0.0236 0.3977
vn 0.2641 0.9568 0.1213
vn 0.5865 0.7706 0.2493
vn 0.3890 -0.9155 0.1029
vn 0.4960 -0.6667 0.5563
vn 0.2662 -0.9012 0.3421
vn 0.7139 -0.0273 0.6997
vn 0.6687 -0.3406 0.6609
vn 0.4541 0.7718 0.4450
vn 0.6539 0.3406 0.6755
vn 0.2109 0.9657 0.1514
vn 0.4142 -0.0126 0.9101
vn 0.3839 -0.3858 0.8389
vn 0.2466 0.7442 0.6207
vn 0.3695 0.3466 0.8621
vn 0.1688 -0.8885 0.4267
vn 0.2700 -0.6738 0.6877
vn 0.0817 0.9655 0.2471
vn 0.0281 -0.8953 0.4445
vn -0.0474 -0.3990 0.9157
vn -0.0133 -0.6832 0.7301
vn -0.0157 0.3552 0.9346
vn -0.0455 -0.0148 0.9988
vn -0.0061 0.9633 0.2685
vn 0.0016 0.7555 0.6551
vn -0.3623 0.3417 0.8671
vn -0.3968 -0.0313 0.9174
vn -0.1003 0.9658 0.2391
vn -0.2540 0.7539 0.6059
vn -0.3181 -0.6603 0.6802
vn -0.2022 -0.8926 0.4030
vn -0.3833 -0.3840 0.8400
vn -0.5222 -0.6542 0.5471
vn -0.3575 -0.8907 0.2806
vn -0.6867 -0.0452 0.7255
vn -0.6424 -0.3744 0.6687
vn -0.4404 0.7631 0.4729
vn -0.6359 0.3520 0.6868
vn -0.1832 0.9650 0.1878
vn -0.6025 0.7711 0.2061
vn -0.8765 0.3535 0.3268
vn -0.4009 -0.9044 0.1461
vn -0.8563 -0.3635 0.3667
vn -0.6694 -0.6751 0.3100
vn -0.9278 -0.0453 0.3703
vn -0.2492 0.9666 0.0600
vn -0.4042 -0.9136 -0.0432
vn -0.9351 -0.3542 0.0017
vn -0.7231 -0.6900 -0.0300
vn -0.9338 0.3577 -0.0065
vn -0.9995 -0.0299 0.0027
vn -0.2878 0.9572 -0.0310
vn -0.6576 0.7533 -0.0136
vn -0.2637 0.9621 -0.0690
vn -0.6065 0.7652 -0.2160
vn -0.6852 -0.6860 -0.2447
vn -0.4447 -0.8896 -0.1034
vn -0.9202 -0.0095 -0.3914
vn -0.8690 -0.3592 -0.3402
vn -0.8687 0.3480 -0.3525
vn -0.5206 -0.7055 -0.4808
vn -0.3421 -0.9126 -0.2238
vn -0.7176 -0.0054 -0.6964
vn -0.6667 -0.3547 -0.6554
vn -0.4339 0.7675 -0.4718
vn -0.6623 0.3515 -0.6616
vn -0.1781 0.9643 -0.1957
vn -0.0736 -0.8999 -0.4298
vn -0.3313 -0.3595 -0.8723
vn -0.2369 -0.6792 -0.6946
vn -0.3752 0.3656 -0.8518
vn -0.3775 -0.0257 -0.9256
vn -0.1086 0.9579 -0.2655
vn -0.2546 0.7734 -0.5805
vn 0.0980 0.9941 0.0460
vn 0.0200 0.9944 0.1032
vn -0.0104 0.9929 0.1186
vn 0.0590 0.9935 -0.0972
vn 0.0921 0.9944 0.0509
vn -0.1227 0.9924 0.0070
vn -0.1533 0.9874 -0.0392
vn 0.0621 0.9876 -0.1439
vn -0.1472 0.9886 -0.0298
vn -0.0478 0.9916 -0.1199
vn 0.0126 0.9910 -0.1329
vn -0.0450 0.9938 0.1018
vn 0.1170 0.9913 0.0605
vn -0.1094 0.9911 -0.0762
vn -0.0891 0.9927 0.0811
vn 0.0697 0.9901 -0.1221
vn -0.0033 0.0018 1.0000
vn 0.8409 -0.2180 0.4952
vn 0.8402 -0.2254 0.4932
vn 0.0005 -0.0003 1.0000
vn -0.0033 0.0018 -1.0000
vn -0.8427 0.2175 -0.4925
vn -0.8399 0.2255 -0.4936
vn 0.0005 -0.0003 -1.0000
vn -0.0767 0.0190 0.9969
vn -0.8427 0.2175 0.4925
vn -0.8626 0.2133 0.4587
vn 0.8262 -0.2043 0.5249
vn 0.8262 -0.2043 -0.5249
vn 0.8409 -0.2180 -0.4952
vn -0.0767 0.0190 -0.9969
vn -0.8626 0.2133 -0.4587
vn 0.8402 -0.2254 -0.4932
vn 0.8199 -0.2909 -0.4930
vn 0.8199 -0.2909 0.4930
vn -0.8399 0.2255 0.4936
vn -0.0251 0.0199 0.9995
vn -0.8297 0.2912 0.4761
vn -0.0251 0.0199 -0.9995
vn -0.0847 0.0440 -0.9954
vn 0.6728 -0.5239 -0.5223
vn 0.6728 -0.5239 0.5223
vn -0.0847 0.0440 0.9954
vn -0.8297 0.2912 -0.4761
vn -0.6628 0.5966 -0.4524
vn -0.2183 0.8575 -0.4658
vn -0.0520 0.0891 -0.9947
vn 0.2637 -0.7934 -0.5486
vn 0.2637 -0.7934 0.5486
vn -0.6628 0.5966 0.4524
vn -0.2183 0.8575 0.4658
vn 0.6302 0.6677 0.3962
vn 0.6302 0.6677 -0.3962
vn 0.6097 -0.0182 -0.7924
vn 0.5892 -0.7042 -0.3962
vn -0.0520 0.0891 0.9947
vn 0.6097 -0.0182 0.7924
vn 0.5892 -0.7042 0.3962
s 1
f 78/1/1 7/2/2 14/3/3
f 6/4/4 5/5/5 12/6/6 13/7/7
f 4/8/8 3/9/9 10/10/10 11/11/11
f 2/12/12 1/13/13 8/14/14 9/15/15
f 7/16/2 6/4/4 13/7/7 14/17/3
f 5/5/5 4/8/8 11/11/11 12/6/6
f 3/9/9 2/12/12 9/15/15 10/10/10
f 9/15/15 8/14/14 15/18/16 16/19/17
f 14/17/3 13/7/7 20/20/18 21/21/19
f 12/6/6 11/11/11 18/22/20 19/23/21
f 10/10/10 9/15/15 16/19/17 17/24/22
f 78/1/1 14/3/3 21/25/19
f 13/7/7 12/6/6 19/23/21 20/20/18
f 11/11/11 10/10/10 17/24/22 18/22/20
f 21/21/19 20/20/18 27/26/23 28/27/24
f 19/23/21 18/22/20 25/28/25 26/29/26
f 17/24/22 16/19/17 23/30/27 24/31/28
f 78/1/1 21/25/19 28/32/24
f 20/20/18 19/23/21 26/29/26 27/26/23
f 18/22/20 17/24/22 24/31/28 25/28/25
f 16/19/17 15/18/16 22/33/29 23/30/27
f 78/1/1 28/32/24 35/34/30
f 27/26/23 26/29/26 33/35/31 34/36/32
f 25/28/25 24/31/28 31/37/33 32/38/34
f 23/30/27 22/33/29 29/39/35 30/40/36
f 28/27/24 27/26/23 34/36/32 35/41/30
f 26/29/26 25/28/25 32/38/34 33/35/31
f 24/31/28 23/30/27 30/40/36 31/37/33
f 34/36/32 33/35/31 40/42/37 41/43/38
f 32/38/34 31/37/33 38/44/39 39/45/40
f 30/40/36 29/39/35 36/46/41 37/47/42
f 35/41/30 34/36/32 41/43/38 42/48/43
f 33/35/31 32/38/34 39/45/40 40/42/37
f 31/37/33 30/40/36 37/47/42 38/44/39
f 78/1/1 35/34/30 42/49/43
f 42/48/43 41/43/38 48/50/44 49/51/45
f 40/42/37 39/45/40 46/52/46 47/53/47
f 38/44/39 37/47/42 44/54/48 45/55/49
f 78/1/1 42/49/43 49/56/45
f 41/43/38 40/42/37 47/53/47 48/50/44
f 39/45/40 38/44/39 45/55/49 46/52/46
f 37/47/42 36/46/41 43/57/50 44/54/48
f 47/53/47 46/52/46 53/58/51 54/59/52
f 45/55/49 44/54/48 51/60/53 52/61/54
f 78/1/1 49/56/45 56/62/55
f 48/50/44 47/53/47 54/59/52 55/63/56
f 46/52/46 45/55/49 52/61/54 53/58/51
f 44/54/48 43/57/50 50/64/57 51/60/53
f 49/51/45 48/50/44 55/63/56 56/65/55
f 78/1/1 56/62/55 63/66/58
f 55/63/56 54/59/52 61/67/59 62/68/60
f 53/58/51 52/61/54 59/69/61 60/70/62
f 51/60/53 50/64/57 57/71/63 58/72/64
f 56/65/55 55/63/56 62/68/60 63/73/58
f 54/59/52 53/58/51 60/70/62 61/67/59
f 52/61/54 51/60/53 58/72/64 59/69/61
f 60/70/62 59/69/61 66/74/65 67/75/66
f 58/72/64 57/71/63 64/76/67 65/77/68
f 63/73/58 62/68/60 69/78/69 70/79/70
f 61/67/59 60/70/62 67/75/66 68/80/71
f 59/69/61 58/72/64 65/77/68 66/74/65
f 78/1/1 63/66/58 70/81/70
f 62/68/60 61/67/59 68/80/71 69/78/69
f 70/79/70 69/78/69 76/82/72 77/83/73
f 68/80/71 67/75/66 74/84/74 75/85/75
f 66/74/65 65/77/68 72/86/76 73/87/77
f 78/1/1 70/81/70 77/88/73
f 69/78/69 68/80/71 75/85/75 76/82/72
f 67/75/66 66/74/65 73/87/77 74/84/74
f 65/77/68 64/76/67 71/89/78 72/86/76
f 73/87/77 72/86/76 80/90/79 81/91/80
f 78/1/1 77/88/73 85/92/81
f 76/82/72 75/85/75 83/93/82 84/94/83
f 74/84/74 73/87/77 81/91/80 82/95/84
f 72/86/76 71/89/78 79/96/85 80/90/79
f 77/83/73 76/82/72 84/94/83 85/97/81
f 75/85/75 74/84/74 82/95/84 83/93/82
f 78/1/1 85/92/81 92/98/86
f 84/94/83 83/93/82 90/99/87 91/100/88
f 82/95/84 81/91/80 88/101/89 89/102/90
f 80/90/79 79/96/85 86/103/91 87/104/92
f 85/97/81 84/94/83 91/100/88 92/105/86
f 83/93/82 82/95/84 89/102/90 90/99/87
f 81/91/80 80/90/79 87/104/92 88/101/89
f 87/104/92 86/103/91 93/106/93 94/107/94
f 92/105/86 91/100/88 98/108/95 99/109/96
f 90/99/87 89/102/90 96/110/97 97/111/98
f 88/101/89 87/104/92 94/107/94 95/112/99
f 78/1/1 92/98/86 99/113/96
f 91/100/88 90/99/87 97/111/98 98/108/95
f 89/102/90 88/101/89 95/112/99 96/110/97
f 99/109/96 98/108/95 105/114/100 106/115/101
f 97/111/98 96/110/97 103/116/102 104/117/103
f 95/112/99 94/107/94 101/118/104 102/119/105
f 78/1/1 99/113/96 106/120/101
f 98/108/95 97/111/98 104/117/103 105/114/100
f 96/110/97 95/112/99 102/119/105 103/116/102
f 94/107/94 93/106/93 100/121/106 101/118/104
f 78/1/1 106/120/101 113/122/107
f 105/114/100 104/117/103 111/123/108 112/124/109
f 103/116/102 102/119/105 109/125/110 110/126/111
f 101/118/104 100/121/106 107/127/112 108/128/113
f 106/115/101 105/114/100 112/124/109 113/129/107
f 104/117/103 103/116/102 110/126/111 111/123/108
f 102/119/105 101/118/104 108/128/113 109/125/110
f 112/130/109 111/131/108 5/5/5 6/4/4
f 110/132/111 109/133/110 3/9/9 4/8/8
f 108/134/113 107/135/112 1/13/13 2/12/12
f 113/136/107 112/130/109 6/4/4 7/16/2
f 111/131/108 110/132/111 4/8/8 5/5/5
f 109/133/110 108/134/113 2/12/12 3/9/9
f 78/1/1 113/137/107 7/2/2
f 50/64/57 43/57/50 120/138/114 121/139/115
f 57/71/63 50/64/57 121/139/115 122/140/116
f 29/39/35 22/33/29 117/141/117 118/142/118
f 86/103/91 79/96/85 125/143/119 126/144/120
f 22/33/29 15/18/16 116/145/121 117/141/117
f 93/106/93 86/103/91 126/144/120 127/146/122
f 1/13/13 107/135/112 129/147/123 114/148/124
f 64/76/67 57/71/63 122/140/116 123/149/125
f 43/57/50 36/46/41 119/150/126 120/138/114
f 36/46/41 29/39/35 118/142/118 119/150/126
f 107/127/112 100/121/106 128/151/127 129/152/123
f 71/89/78 64/76/67 123/149/125 124/153/128
f 100/121/106 93/106/93 127/146/122 128/151/127
f 8/14/14 1/13/13 114/148/124 115/154/129
f 15/18/16 8/14/14 115/154/129 116/145/121
f 79/96/85 71/89/78 124/153/128 125/143/119
f 139/155/130 140/156/131 146/157/132 145/158/133
f 136/159/134 137/160/135 143/161/136 142/162/137
f 133/163/138 139/155/130 138/164/139 132/165/140
f 134/166/141 140/156/131 139/155/130 133/163/138
f 135/167/142 141/168/143 140/156/131 134/166/141
f 135/167/142 130/169/144 136/170/134 141/168/143
f 131/171/145 137/160/135 136/159/134 130/172/144
f 132/165/140 138/164/139 137/160/135 131/171/145
f 146/157/132 147/173/146 153/174/147 152/175/148
f 144/176/149 145/158/133 151/177/150 150/178/151
f 141/168/143 136/170/134 142/179/137 147/173/146
f 137/160/135 138/164/139 144/176/149 143/161/136
f 138/164/139 139/155/130 145/158/133 144/176/149
f 140/156/131 141/168/143 147/173/146 146/157/132
f 153/174/147 148/180/152 154/181/153 159/182/154
f 151/177/150 152/175/148 158/183/155 157/184/156
f 142/162/137 143/161/136 149/185/157 148/186/152
f 145/158/133 146/157/132 152/175/148 151/177/150
f 147/173/146 142/179/137 148/180/152 153/174/147
f 143/161/136 144/176/149 150/178/151 149/185/157
f 154/187/153 155/188/158 161/189/159 160/190/160
f 158/183/155 159/182/154 165/191/161 164/192/162
f 149/185/157 150/178/151 156/193/163 155/188/158
f 150/178/151 151/177/150 157/184/156 156/193/163
f 152/175/148 153/174/147 159/182/154 158/183/155
f 148/186/152 149/185/157 155/188/158 154/187/153
f 161/189/159 162/194/164 168/195/165 167/196/166
f 165/191/161 160/197/160 166/198/167 171/199/168
f 157/184/156 158/183/155 164/192/162 163/200/169
f 159/182/154 154/181/153 160/197/160 165/191/161
f 155/188/158 156/193/163 162/194/164 161/189/159
f 156/193/163 157/184/156 163/200/169 162/194/164
f 167/201/166 168/195/165 169/202/170 170/203/171
f 166/204/167 167/201/166 170/203/171 171/205/168
f 162/194/164 163/200/169 169/202/170 168/195/165
f 164/192/162 165/191/161 171/199/168 170/206/171
f 160/190/160 161/189/159 167/196/166 166/207/167
f 163/200/169 164/192/162 170/206/171 169/202/170
