# Blender v2.78 (sub 4) OBJ File: 'Mockup5.blend'
# www.blender.org
o Cube
v -10.673220 -2.287382 29.228148
v -8.425916 21.322462 30.739666
v -22.556936 -1.995595 -44.305672
v -18.090797 -0.794889 -56.914490
v 10.673222 -2.287382 28.051039
v 9.394276 22.228273 30.672419
v 23.173370 -1.995595 -43.745281
v 15.512987 -0.794889 -58.091320
v -11.892228 2.949363 38.150311
v -12.134318 15.508317 38.795883
v -19.043467 -0.998807 -51.590794
v -20.612568 -1.724510 -47.668030
v 18.875347 -0.998807 -51.702869
v 20.892765 -1.724510 -47.331799
v 12.134318 15.508317 37.020557
v 11.892228 2.949363 36.778465
v -21.502125 -2.287382 -21.525948
v -17.625017 14.626510 -21.000292
v 21.502125 -2.287382 -21.525948
v 17.625017 14.626510 -21.000292
v 23.957922 6.523682 -25.626711
v 23.957922 7.038476 -25.626711
v -23.957922 6.096941 -25.626711
v -23.957922 6.949628 -25.626711
v 14.666245 16.676626 -1.973828
v 11.707473 19.999866 16.357033
v 19.936024 10.704941 -2.726872
v 15.914125 13.106629 20.172968
v -11.707473 20.388218 17.097464
v -14.666245 16.125303 -1.951415
v -15.914126 13.106629 20.172968
v -19.936024 10.704941 -2.726872
v -17.892488 -2.287382 -3.200002
v -14.282855 -2.287382 15.125943
v 19.936024 2.891505 -2.726872
v 15.914125 2.920434 20.172968
v 14.282855 -2.287382 15.125942
v 17.892490 -2.287382 -3.200003
v -15.914126 2.920434 20.172968
v -19.936024 2.891506 -2.726872
v 0.000000 -1.995595 -43.072807
v 0.000000 -0.794889 -58.539631
v 0.000000 -2.287382 33.451889
v 0.000000 24.217613 36.112720
v 0.000000 4.565105 -25.626711
v 0.000000 9.733145 -25.626711
v 0.000000 2.949363 43.072807
v 0.000000 15.508317 43.072807
v 0.000000 -1.724510 -48.060310
v 0.000000 -0.998807 -52.767616
v 0.000000 19.423422 -13.470118
v 0.000000 -2.287382 -21.000292
v -0.000001 12.134834 -2.726872
v 0.000000 14.536522 20.172968
v 0.000000 21.304770 -1.962621
v 0.000000 24.635876 17.075048
v 0.000000 4.594035 -2.726872
v -0.000001 4.622963 20.172968
v 0.000000 -2.287382 0.357409
v 0.000001 -2.287382 21.715107
v -19.208242 14.424883 -25.931601
v -20.791470 22.850042 -33.137936
v -22.374695 14.021630 -37.554680
v 23.957922 -2.214436 -26.518419
v 23.957922 -2.141489 -32.036549
v 23.957922 -2.068542 -37.554680
v -23.957922 5.711829 -29.988235
v -23.957922 4.899976 -34.349762
v -23.957922 4.088124 -38.711285
v -23.957922 8.364473 -29.988235
v -23.957922 8.425694 -34.349762
v -23.957922 8.486916 -38.711285
v -23.957922 -2.068542 -37.554680
v -23.957922 -2.141489 -32.036552
v -23.957922 -2.214436 -26.518423
v 22.374695 14.021630 -37.554680
v 20.791470 22.850042 -34.241795
v 19.208242 14.424884 -25.974928
v 23.957922 4.088124 -38.711285
v 23.957922 4.899976 -34.349758
v 23.957922 5.711829 -29.988234
v 23.957922 8.486916 -38.711285
v 23.957922 8.425694 -34.349758
v 23.957922 8.364473 -29.988234
v 0.000000 -2.068542 -37.554680
v 0.000000 -2.141489 -32.036552
v 0.000000 -2.214436 -26.518423
v 0.000000 14.021630 -37.554680
v 0.000000 22.850042 -24.162357
v 0.000000 20.181179 -20.655039
v -11.978961 -1.995595 -43.072807
v -4.374351 24.291660 36.129532
v -11.978961 9.733145 -25.626711
v -5.946114 2.949363 43.072807
v -5.946114 15.508317 43.072807
v -11.978961 -2.287382 -21.000292
v -9.968013 12.134834 -2.726872
v -7.957063 14.536522 20.172968
v -9.968012 -2.287382 0.357409
v -7.957062 -2.287382 21.715107
v -11.978961 -0.794889 -58.539631
v -5.336611 -2.287382 33.451889
v -11.978961 4.565105 -25.626711
v -11.978961 -1.724510 -48.060310
v -11.978961 -0.998807 -52.767616
v -8.812509 14.626510 -16.759020
v -7.333122 19.097071 -1.957018
v -5.853736 22.356958 17.086256
v -9.968012 4.594035 -2.726872
v -7.957064 4.622963 20.172968
v -11.978961 -2.068542 -37.554680
v -11.978961 -2.141489 -32.036552
v -11.978961 -2.214436 -26.518423
v -11.187347 14.021630 -37.554680
v -10.395735 26.556896 -27.795279
v -9.604121 14.951112 -21.305590
v 11.978961 -0.794889 -58.539631
v 5.336610 -2.287382 33.451889
v 11.978961 4.565105 -25.626711
v 11.978961 -1.724510 -48.060310
v 11.978961 -0.998807 -52.767616
v 8.812509 14.626510 -16.948450
v 7.333122 19.097071 -1.968225
v 5.853736 22.356958 17.063841
v 9.968012 4.594035 -2.726872
v 7.957062 4.622963 20.172968
v 11.978961 -1.995595 -43.072807
v 4.374351 24.884052 36.095909
v 11.978961 9.733145 -25.626711
v 5.946114 2.949363 43.072807
v 5.946114 15.508317 43.072807
v 11.978961 -2.287382 -21.000292
v 9.968011 12.134834 -2.726872
v 7.957063 14.536522 20.172968
v 9.968012 -2.287382 0.357408
v 7.957064 -2.287382 21.715107
v 11.187347 14.021630 -37.554680
v 10.395735 27.258192 -27.984709
v 9.604121 15.345782 -21.233715
v 11.978961 -2.068542 -37.554680
v 11.978961 -2.141489 -32.036552
v 11.978961 -2.214436 -26.518423
v -23.034851 7.843609 -46.304741
v -23.562592 2.904770 -53.299728
v 23.957922 -2.038126 -39.855564
v 23.957922 -2.013810 -41.694942
v -23.957922 1.664439 -42.609531
v -23.957922 -0.273106 -45.725872
v -23.957922 4.531669 -44.572330
v -23.957922 1.369761 -49.257774
v -23.957922 -2.013810 -41.694942
v -23.957922 -2.038126 -39.855564
v 23.562592 2.904770 -53.299728
v 23.034851 7.843609 -46.304741
v 23.957922 -0.273106 -45.725872
v 23.957922 1.664439 -42.609531
v 23.957922 1.369761 -49.257774
v 23.957922 4.531669 -44.572330
v 0.000000 -2.013810 -41.694942
v 0.000000 -2.038126 -39.855564
v 0.000000 2.904770 -53.299728
v 0.000000 7.843609 -46.304741
v -11.781296 2.904770 -53.299728
v -11.517426 7.843609 -46.304741
v -11.978961 -2.013810 -41.694942
v -11.978961 -2.038126 -39.855564
v 11.978961 -2.013810 -41.694942
v 11.978961 -2.038126 -39.855564
v 11.781296 2.904770 -53.299728
v 11.517426 7.843609 -46.304741
vt 0.889753 0.330530
vt 0.905571 0.313137
vt 0.956760 0.298671
vt 0.938741 0.334557
vt 0.661483 0.912820
vt 0.700490 0.918987
vt 0.693248 0.940019
vt 0.645927 0.953573
vt 0.246569 0.047951
vt 0.276017 0.095850
vt 0.157086 0.111440
vt 0.093027 0.085874
vt 0.035645 0.214198
vt 0.112699 0.200304
vt 0.155798 0.228897
vt 0.076157 0.257808
vt 0.172172 0.811402
vt 0.206916 0.855693
vt 0.128811 0.820258
vt 0.100754 0.784799
vt 0.274971 0.212356
vt 0.274535 0.250996
vt 0.112503 0.723480
vt 0.043831 0.706657
vt 0.083797 0.674206
vt 0.144611 0.697594
vt 0.186723 0.443836
vt 0.029989 0.455480
vt 0.073163 0.418983
vt 0.186773 0.394132
vt 0.164152 0.873455
vt 0.063594 0.824677
vt 0.492002 0.425137
vt 0.504031 0.354467
vt 0.507012 0.354493
vt 0.520193 0.425351
vt 0.596204 0.902269
vt 0.629559 0.907697
vt 0.613530 0.960889
vt 0.586391 0.968809
vt 0.624977 0.686392
vt 0.653535 0.685297
vt 0.662560 0.709628
vt 0.640971 0.695826
vt 0.872246 0.350238
vt 0.909848 0.354466
vt 0.826578 0.444360
vt 0.825711 0.394691
vt 0.942148 0.418426
vt 0.983684 0.456611
vt 0.363560 0.682566
vt 0.361700 0.652651
vt 0.521592 0.632752
vt 0.492107 0.679172
vt 0.719418 0.000000
vt 0.715465 0.015477
vt 0.676124 0.003181
vt 0.676790 0.000101
vt 0.475684 0.954286
vt 0.485592 0.998447
vt 0.453969 0.994223
vt 0.443539 0.939216
vt 0.615900 0.243340
vt 0.663659 0.296313
vt 0.619674 0.291179
vt 0.578882 0.239083
vt 0.486587 0.885263
vt 0.449956 0.880250
vt 0.666556 0.055816
vt 0.622280 0.060174
vt 0.456854 0.322726
vt 0.447283 0.279343
vt 0.671478 0.349385
vt 0.244430 0.298419
vt 0.667198 0.371096
vt 0.669804 0.433066
vt 0.444410 0.224626
vt 0.449881 0.069679
vt 0.460343 0.026292
vt 0.204668 0.658413
vt 0.238411 0.687929
vt 0.310332 0.925653
vt 0.323091 0.897875
vt 0.342271 0.432788
vt 0.344088 0.370861
vt 0.309014 0.846352
vt 0.331463 0.726956
vt 0.320569 0.786690
vt 0.181065 0.765517
vt 0.189440 0.719604
vt 0.476547 0.736335
vt 0.462965 0.808221
vt 0.341772 0.553416
vt 0.186324 0.541305
vt 0.186465 0.492571
vt 0.341634 0.493094
vt 0.491818 0.562122
vt 0.491353 0.493552
vt 0.445637 0.124373
vt 0.443408 0.174512
vt 0.274780 0.173671
vt 0.275711 0.134953
vt 0.581839 0.111689
vt 0.552193 0.175197
vt 0.669857 0.553705
vt 0.670286 0.493396
vt 0.826647 0.493327
vt 0.826609 0.542288
vt 0.520013 0.561605
vt 0.520244 0.493558
vt 0.512743 0.742201
vt 0.499684 0.813720
vt 0.616782 0.107848
vt 0.597652 0.175447
vt 0.983697 0.493304
vt 0.983697 0.529996
vt 0.656500 0.762821
vt 0.688637 0.767322
vt 0.675447 0.840170
vt 0.643464 0.835342
vt 0.622885 0.758233
vt 0.609983 0.830302
vt 0.029690 0.528615
vt 0.029830 0.492048
vt 0.029690 0.779744
vt 0.035954 0.743053
vt 0.106420 0.754072
vt 0.112925 0.172891
vt 0.113625 0.145485
vt 0.036478 0.130538
vt 0.033472 0.172391
vt 0.727861 0.772958
vt 0.714501 0.846083
vt 0.861146 0.111362
vt 0.865270 0.177393
vt 0.785306 0.176961
vt 0.786069 0.118937
vt 0.714248 0.181785
vt 0.717361 0.121331
vt 0.601444 0.755293
vt 0.588505 0.827074
vt 0.573179 0.824771
vt 0.586196 0.753151
vt 0.536449 0.819248
vt 0.549791 0.747857
vt 0.848483 0.026646
vt 0.849908 0.047290
vt 0.767288 0.058007
vt 0.790409 0.030983
vt 0.749058 0.088633
vt 0.754316 0.021769
vt 0.574688 0.898775
vt 0.560432 0.969184
vt 0.545421 0.966888
vt 0.559494 0.896350
vt 0.509803 0.960711
vt 0.523057 0.890677
vt 0.860625 0.243744
vt 0.847754 0.309294
vt 0.765512 0.296371
vt 0.784553 0.235446
vt 0.738741 0.277145
vt 0.717548 0.236932
vt 0.576607 0.989949
vt 0.547849 1.000000
vt 0.516849 1.000000
vt 0.843723 0.006711
vt 0.803060 0.007914
vt 0.761992 0.002177
vt 0.672333 0.354467
vt 0.710936 0.337623
vt 0.714134 0.353077
vt 0.749821 0.332321
vt 0.756489 0.352130
vt 0.786819 0.324120
vt 0.798153 0.347693
vt 0.552731 0.635499
vt 0.527888 0.674463
vt 0.582672 0.642783
vt 0.562230 0.677793
vt 0.612014 0.651513
vt 0.598023 0.682200
vt 0.613083 0.684348
vt 0.688092 0.722936
vt 0.723400 0.733909
vt 0.185984 0.591003
vt 0.063206 0.565345
vt 0.502392 0.632752
vt 0.507319 0.632641
vt 0.825803 0.591954
vt 0.954337 0.568192
vt 0.667329 0.615671
vt 0.343032 0.615264
vt 0.971048 0.071718
vt 0.980712 0.096059
vt 0.925812 0.104519
vt 0.906023 0.045157
vt 0.587026 0.900766
vt 0.600778 0.828920
vt 0.613659 0.756983
vt 0.989901 0.177425
vt 0.980975 0.258278
vt 0.926891 0.250751
vt 0.933769 0.177493
vt 0.910373 0.004015
vt 0.942028 0.026999
vt 0.892267 0.027767
vt 0.876631 0.007753
vt 0.598890 0.979866
vt 0.572366 0.970637
vt 0.845101 0.330171
vt 0.839047 0.350148
vt 0.635850 0.669226
vn -0.9089 -0.3644 -0.2029
vn -0.7395 0.1665 -0.6522
vn -0.3201 -0.3724 -0.8711
vn -0.2945 -0.9343 -0.2008
vn 0.0055 -0.9956 -0.0932
vn 0.0170 -0.2830 -0.9590
vn 0.2087 -0.3165 -0.9253
vn 0.2976 -0.9231 -0.2436
vn 0.8350 -0.5196 0.1807
vn 0.6172 0.7865 -0.0223
vn 0.6504 0.7489 0.1265
vn 0.7859 -0.3794 0.4882
vn -0.3450 -0.3561 0.8684
vn -0.3192 0.8611 0.3956
vn -0.6312 0.7629 0.1394
vn -0.7940 -0.3338 0.5080
vn 0.0000 -1.0000 0.0000
vn 0.5282 -0.8421 0.1087
vn 0.4608 -0.8697 0.1765
vn 0.1609 -0.9441 0.2877
vn -0.3342 0.9386 -0.0849
vn -0.6167 0.7871 -0.0085
vn -0.1242 -0.9506 0.2843
vn -0.3288 0.1765 0.9277
vn -0.7890 0.2195 0.5739
vn -0.4644 -0.8665 0.1833
vn 0.0837 0.9957 0.0393
vn 0.3598 0.1745 0.9165
vn 0.8154 0.2402 0.5267
vn 0.8807 0.4249 0.2091
vn -0.0044 0.7105 0.7037
vn 0.8549 0.2076 0.4754
vn 0.8489 0.0434 0.5268
vn -0.0683 -0.6903 0.7203
vn -0.0000 -0.9994 -0.0348
vn 0.0049 -0.9940 -0.1093
vn 0.2835 -0.9290 -0.2376
vn 0.3295 -0.9194 -0.2146
vn -0.7039 -0.7079 -0.0568
vn -0.8794 -0.4311 -0.2019
vn -0.2745 -0.9327 -0.2338
vn -0.2977 -0.9330 -0.2022
vn -0.0551 -0.9955 0.0768
vn 0.3263 -0.3556 0.8758
vn -0.5651 -0.8191 0.0981
vn -0.8442 0.5072 0.1735
vn -0.8581 0.2058 0.4704
vn -0.5913 -0.7988 0.1107
vn 0.9984 -0.0056 0.0549
vn 0.9648 0.2165 0.1494
vn 0.7376 -0.6657 0.1126
vn 0.5941 -0.7967 0.1110
vn -0.3077 0.8603 0.4064
vn -0.7212 0.5552 0.4142
vn -0.4516 0.8916 0.0331
vn -0.2847 0.9574 -0.0478
vn -0.0001 -0.9999 -0.0134
vn -0.0001 -1.0000 -0.0067
vn 0.7284 0.5577 0.3981
vn 0.4678 0.8825 0.0483
vn -0.8554 -0.4802 0.1941
vn -0.5456 0.8361 -0.0557
vn -0.8466 0.0418 0.5305
vn -0.8455 -0.4965 0.1963
vn 0.8530 -0.4841 0.1949
vn -0.0851 -0.9914 0.0991
vn -0.2987 0.9402 -0.1635
vn 0.5346 0.8433 -0.0553
vn -0.8795 0.4328 0.1979
vn -0.5281 -0.8425 0.1057
vn 0.8424 0.5090 0.1766
vn 0.5666 -0.8181 0.0977
vn 0.0466 0.9986 0.0238
vn 0.0001 -1.0000 -0.0067
vn 0.0000 -1.0000 -0.0066
vn -0.0512 0.9984 0.0222
vn -0.0818 0.9959 0.0385
vn 0.0000 0.9993 0.0358
vn 0.0000 1.0000 -0.0013
vn -0.0029 0.7080 0.7062
vn 0.0000 0.7075 0.7067
vn 0.2856 0.9443 -0.1632
vn -0.0006 0.9828 -0.1849
vn -0.0147 0.9951 -0.0972
vn 0.3012 0.9478 -0.1042
vn 0.2753 0.9607 -0.0351
vn -0.0033 0.9970 -0.0775
vn 0.0859 -0.9913 0.0994
vn 0.0000 -0.9945 0.1043
vn 0.0000 -0.9973 0.0734
vn 0.0579 -0.9955 0.0756
vn 0.0698 -0.6906 0.7198
vn 0.0000 -0.6692 0.7431
vn 0.0001 -0.9999 -0.0134
vn 0.0000 -0.9999 -0.0132
vn 0.3263 0.8454 0.4228
vn -0.0112 0.8182 0.5748
vn -0.0176 -0.4198 0.9074
vn -0.0037 -0.9938 -0.1108
vn -0.0060 -0.9954 -0.0952
vn 0.0000 -0.9955 -0.0940
vn 0.0000 -0.9946 -0.1034
vn 0.0008 -0.9994 -0.0341
vn 0.0000 -0.9994 -0.0337
vn 0.0000 0.2111 0.9774
vn 0.0000 -0.9691 0.2467
vn -0.0254 0.9004 0.4342
vn 0.3115 0.8624 0.3990
vn -0.0469 -0.2911 -0.9555
vn 0.0000 -0.2857 -0.9583
vn 0.0000 0.8169 -0.5768
vn -0.0068 0.7731 -0.6342
vn -0.1042 0.7174 -0.6888
vn -0.0193 0.9580 0.2861
vn 0.1661 0.9851 0.0438
vn 0.9926 0.1086 -0.0532
vn 0.6132 0.6589 -0.4357
vn 0.6645 0.5709 -0.4820
vn 0.9862 0.1512 -0.0674
vn 0.5641 0.7808 -0.2684
vn 0.9891 0.1336 0.0614
vn 0.7071 -0.7070 -0.0093
vn -0.6132 0.6589 -0.4357
vn -0.6584 0.5857 -0.4727
vn 0.0873 0.7322 -0.6754
vn -0.5748 0.7942 -0.1968
vn -0.1649 0.9844 0.0607
vn 1.0000 0.0000 0.0000
vn -0.9652 0.2096 0.1559
vn -0.9987 -0.0054 0.0508
vn -0.9897 0.1288 0.0616
vn -1.0000 0.0000 0.0000
vn -0.9862 0.1519 -0.0662
vn -0.7374 -0.6660 0.1121
vn -0.7071 -0.7070 -0.0093
vn 0.0043 0.8123 -0.5831
vn 0.7123 0.1361 -0.6885
vn -0.0001 -0.9999 -0.0125
vn 0.0001 -0.9999 -0.0121
vn -0.0147 0.8012 -0.5982
vn 0.9023 -0.3649 -0.2296
vn 0.8874 -0.4115 -0.2078
vn 0.6973 -0.7149 -0.0522
vn -0.9926 0.1086 -0.0532
s 1
f 150/1/1 144/2/2 4/3/3 11/4/4
f 121/5/5 117/6/6 8/7/7 13/8/8
f 28/9/9 26/10/10 6/11/11 15/12/12
f 95/13/13 92/14/14 2/15/15 10/16/16
f 136/17/17 37/18/18 5/19/19 118/20/20
f 108/21/21 29/22/22 2/15/15 92/14/14
f 102/23/23 94/24/24 9/25/25 1/26/26
f 126/27/27 130/28/28 16/29/29 36/30/30
f 37/18/18 36/31/30 16/32/29 5/19/19
f 119/33/31 21/34/32 22/35/33 129/36/34
f 127/37/35 120/38/36 14/39/37 7/40/38
f 120/38/36 121/5/5 13/8/8 14/39/37
f 151/41/39 148/42/40 12/43/41 3/44/42
f 148/45/40 150/1/1 11/4/4 12/46/41
f 134/47/43 28/48/9 15/49/12 131/50/44
f 33/51/45 40/52/46 23/53/47 17/54/48
f 81/55/49 84/56/50 22/57/33 21/58/32
f 64/59/51 81/60/49 21/61/32 19/62/52
f 116/63/53 61/64/54 18/65/55 106/66/56
f 142/67/57 64/59/51 19/62/52 132/68/58
f 84/56/50 78/69/59 20/70/60 22/57/33
f 32/71/61 30/72/62 18/65/55 24/73/63
f 10/16/16 2/15/15 29/22/22 31/74/64
f 31/74/64 29/22/22 30/72/62 32/71/61
f 129/36/34 22/35/33 27/75/65 133/76/66
f 133/76/66 27/75/65 28/48/9 134/47/43
f 106/66/56 18/65/55 30/72/62 107/77/67
f 107/77/67 30/72/62 29/22/22 108/21/21
f 22/57/33 20/70/60 25/78/68 27/79/65
f 27/79/65 25/78/68 26/10/10 28/9/9
f 1/26/26 9/25/25 39/80/69 34/81/70
f 34/81/70 39/80/69 40/52/46 33/51/45
f 19/62/52 21/61/32 35/82/71 38/83/72
f 38/83/72 35/82/71 36/31/30 37/18/18
f 119/33/31 125/84/73 35/85/71 21/34/32
f 125/84/73 126/27/27 36/30/30 35/85/71
f 132/68/58 19/62/52 38/83/72 135/86/17
f 135/86/17 38/83/72 37/18/18 136/17/17
f 99/87/17 59/88/17 60/89/17 100/90/17
f 96/91/74 52/92/75 59/88/17 99/87/17
f 109/93/76 110/94/77 58/95/78 57/96/79
f 103/97/80 109/93/76 57/96/79 45/98/81
f 123/99/82 55/100/83 56/101/84 124/102/85
f 122/103/86 51/104/87 55/100/83 123/99/82
f 97/105/88 53/106/89 54/107/90 98/108/91
f 93/109/92 46/110/93 53/106/89 97/105/88
f 113/111/94 87/112/95 52/92/75 96/91/74
f 139/113/96 90/114/97 51/104/87 122/103/86
f 98/108/91 54/107/90 48/115/98 95/116/13
f 104/117/99 105/118/100 50/119/101 49/120/102
f 91/121/103 104/117/99 49/120/102 41/122/104
f 103/97/80 45/98/81 46/110/93 93/109/92
f 110/94/77 94/123/24 47/124/105 58/95/78
f 118/20/20 130/125/28 47/126/105 43/127/106
f 124/102/85 56/101/84 44/128/107 128/129/108
f 100/90/17 60/89/17 43/127/106 102/23/23
f 131/130/44 128/129/108 44/128/107 48/131/98
f 105/118/100 101/132/109 42/133/110 50/119/101
f 170/134/111 162/135/111 88/136/112 137/137/113
f 137/137/113 88/136/112 89/138/114 138/139/115
f 138/139/115 89/138/114 90/114/97 139/113/96
f 166/140/95 160/141/95 85/142/95 111/143/95
f 111/143/95 85/142/95 86/144/95 112/145/95
f 112/145/95 86/144/95 87/112/95 113/111/94
f 158/146/116 154/147/117 76/148/118 82/149/119
f 82/149/119 76/148/118 77/150/120 83/151/121
f 83/151/121 77/150/120 78/69/59 84/56/50
f 168/152/95 145/153/122 66/154/122 140/155/95
f 140/155/95 66/154/122 65/156/122 141/157/95
f 141/157/95 65/156/122 64/59/51 142/67/57
f 164/158/111 143/159/123 63/160/124 114/161/125
f 114/161/125 63/160/124 62/162/126 115/163/127
f 115/163/127 62/162/126 61/64/54 116/63/53
f 145/153/122 156/164/128 79/165/128 66/154/122
f 66/154/122 79/165/128 80/166/128 65/156/122
f 65/156/122 80/166/128 81/60/49 64/59/51
f 156/167/128 158/146/116 82/149/119 79/168/128
f 79/168/128 82/149/119 83/151/121 80/169/128
f 80/169/128 83/151/121 84/56/50 81/55/49
f 23/170/47 24/73/63 70/171/129 67/172/130
f 67/172/130 70/171/129 71/173/131 68/174/132
f 68/174/132 71/173/131 72/175/133 69/176/132
f 17/54/48 23/53/47 67/177/130 75/178/134
f 75/178/134 67/177/130 68/179/132 74/180/135
f 74/180/135 68/179/132 69/181/132 73/182/135
f 24/73/63 18/65/55 61/64/54 70/171/129
f 70/171/129 61/64/54 62/162/126 71/173/131
f 71/173/131 62/162/126 63/160/124 72/175/133
f 89/138/114 115/163/127 116/63/53 90/114/97
f 88/136/112 114/161/125 115/163/127 89/138/114
f 162/135/111 164/158/111 114/161/125 88/136/112
f 74/180/135 112/145/95 113/111/94 75/178/134
f 73/182/135 111/143/95 112/145/95 74/180/135
f 152/183/135 166/140/95 111/143/95 73/182/135
f 11/184/4 4/185/3 101/132/109 105/118/100
f 34/81/70 100/90/17 102/23/23 1/26/26
f 39/186/69 9/187/25 94/123/24 110/94/77
f 23/188/47 103/97/80 93/109/92 24/189/63
f 3/44/42 12/43/41 104/117/99 91/121/103
f 12/43/41 11/184/4 105/118/100 104/117/99
f 31/190/64 98/108/91 95/116/13 10/191/16
f 75/178/134 113/111/94 96/91/74 17/54/48
f 24/189/63 93/109/92 97/105/88 32/192/61
f 32/192/61 97/105/88 98/108/91 31/190/64
f 23/188/47 40/193/46 109/93/76 103/97/80
f 40/193/46 39/186/69 110/94/77 109/93/76
f 17/54/48 96/91/74 99/87/17 33/51/45
f 33/51/45 99/87/17 100/90/17 34/81/70
f 55/100/83 107/77/67 108/21/21 56/101/84
f 51/104/87 106/66/56 107/77/67 55/100/83
f 90/114/97 116/63/53 106/66/56 51/104/87
f 43/127/106 47/126/105 94/24/24 102/23/23
f 56/101/84 108/21/21 92/14/14 44/128/107
f 48/131/98 44/128/107 92/14/14 95/13/13
f 86/144/95 141/157/95 142/67/57 87/112/95
f 85/142/95 140/155/95 141/157/95 86/144/95
f 160/141/95 168/152/95 140/155/95 85/142/95
f 77/150/120 138/139/115 139/113/96 78/69/59
f 76/148/118 137/137/113 138/139/115 77/150/120
f 154/147/117 170/134/111 137/137/113 76/148/118
f 15/12/12 6/11/11 128/129/108 131/130/44
f 26/10/10 124/102/85 128/129/108 6/11/11
f 5/19/19 16/32/29 130/125/28 118/20/20
f 78/69/59 139/113/96 122/103/86 20/70/60
f 20/70/60 122/103/86 123/99/82 25/78/68
f 25/78/68 123/99/82 124/102/85 26/10/10
f 59/88/17 135/86/17 136/17/17 60/89/17
f 52/92/75 132/68/58 135/86/17 59/88/17
f 57/96/79 58/95/78 126/27/27 125/84/73
f 45/98/81 57/96/79 125/84/73 119/33/31
f 53/106/89 133/76/66 134/47/43 54/107/90
f 46/110/93 129/36/34 133/76/66 53/106/89
f 87/112/95 142/67/57 132/68/58 52/92/75
f 54/107/90 134/47/43 131/50/44 48/115/98
f 49/120/102 50/119/101 121/5/5 120/38/36
f 41/122/104 49/120/102 120/38/36 127/37/35
f 45/98/81 119/33/31 129/36/34 46/110/93
f 58/95/78 47/124/105 130/28/28 126/27/27
f 60/89/17 136/17/17 118/20/20 43/127/106
f 50/119/101 42/133/110 117/6/6 121/5/5
f 8/194/7 117/195/6 169/196/136 153/197/137
f 153/197/137 169/196/136 170/134/111 154/147/117
f 41/122/104 127/37/35 167/198/138 159/199/95
f 159/199/95 167/198/138 168/152/95 160/141/95
f 3/44/42 91/121/103 165/200/139 151/41/39
f 151/41/39 165/200/139 166/140/95 152/183/135
f 42/201/110 101/202/109 163/203/140 161/204/111
f 161/204/111 163/203/140 164/158/111 162/135/111
f 14/205/37 13/206/8 157/207/141 155/208/142
f 155/208/142 157/207/141 158/146/116 156/167/128
f 7/40/38 14/39/37 155/209/142 146/210/143
f 146/210/143 155/209/142 156/164/128 145/153/122
f 101/202/109 4/3/3 144/2/2 163/203/140
f 163/203/140 144/2/2 143/159/123 164/158/111
f 127/37/35 7/40/38 146/210/143 167/198/138
f 167/198/138 146/210/143 145/153/122 168/152/95
f 13/206/8 8/194/7 153/197/137 157/207/141
f 157/207/141 153/197/137 154/147/117 158/146/116
f 91/121/103 41/122/104 159/199/95 165/200/139
f 165/200/139 159/199/95 160/141/95 166/140/95
f 117/195/6 42/201/110 161/204/111 169/196/136
f 169/196/136 161/204/111 162/135/111 170/134/111
f 69/176/132 72/175/133 149/211/144 147/212/132
f 147/212/132 149/211/144 150/1/1 148/45/40
f 73/182/135 69/181/132 147/213/132 152/183/135
f 152/183/135 147/213/132 148/42/40 151/41/39
f 72/175/133 63/160/124 143/159/123 149/211/144
f 149/211/144 143/159/123 144/2/2 150/1/1
