# Blender v2.78 (sub 0) OBJ File: 'Mockup4.blend'
# www.blender.org
o River_Plane
v 0.000000 -5.321053 0.000000
v 0.000000 -5.321053 250.000000
v 245.294556 -5.321053 0.000000
v 0.000000 -5.321053 -250.000000
v -245.294586 -5.321053 0.000000
v -245.294586 -5.321053 250.000000
v 245.294556 -5.321053 250.000000
v 245.294556 -5.321053 -250.000000
v -245.294586 -5.321053 -250.000000
v 245.294556 -5.321053 -62.500000
v -245.294586 -5.321053 -62.500000
v -122.309166 -5.321053 -125.000000
v 122.309166 -5.321053 -125.000000
v 0.000000 -5.321053 -312.500000
v 245.294556 -5.321053 -312.500000
v -245.294586 -5.321053 -312.500000
v -122.309166 -5.321053 -375.000000
v 122.309166 -5.321053 -375.000000
v 0.000000 -5.321053 312.500000
v -245.294586 -5.321053 312.500000
v 245.294556 -5.321053 312.500000
v 122.309166 -5.321053 375.000000
v -122.309166 -5.321053 375.000000
v -245.294586 -5.321053 62.500000
v -122.309166 -5.321053 -500.000000
v 122.309166 -5.321053 -500.000000
v 122.309166 -5.321053 500.000000
v -122.309166 -5.321053 500.000000
v 245.294556 -5.321053 62.500000
v -245.294586 -5.321053 -437.500000
v -122.309166 -5.321053 -250.000000
v -245.294586 -5.321053 500.000000
v 0.000000 -5.321053 500.000000
v 245.294556 -5.321053 500.000000
v -245.294586 -5.321053 -187.500000
v 245.294556 -5.321053 -500.000000
v 0.000000 -5.321053 -500.000000
v -245.294586 -5.321053 -500.000000
v -122.309166 -5.321053 0.000000
v 245.294556 -5.321053 -437.500000
v 245.294556 -5.321053 -187.500000
v 122.309166 -5.321053 -250.000000
v 0.000000 -5.321053 -437.500000
v 0.000000 -5.321053 -187.500000
v 245.294556 -5.321053 437.500000
v 122.309166 -5.321053 250.000000
v 245.294556 -5.321053 187.500000
v 122.309166 -5.321053 0.000000
v -245.294586 -5.321053 437.500000
v -245.294586 -5.321053 187.500000
v -122.309166 -5.321053 250.000000
v 0.000000 -5.321053 437.500000
v 0.000000 -5.321053 187.500000
v 245.294556 -5.321053 375.000000
v -245.294586 -5.321053 375.000000
v 0.000000 -5.321053 375.000000
v -245.294586 -5.321053 -375.000000
v 245.294556 -5.321053 -375.000000
v 0.000000 -5.321053 -375.000000
v -245.294586 -5.321053 -125.000000
v 245.294556 -5.321053 -125.000000
v 0.000000 -5.321053 -125.000000
v 245.294556 -5.321053 125.000000
v -245.294586 -5.321053 125.000000
v 0.000000 -5.321053 125.000000
v 0.000000 -5.321053 -62.500000
v -122.309166 -5.321053 125.000000
v 122.309166 -5.321053 125.000000
v 0.000000 -5.321053 62.500000
v 122.309166 -5.321053 312.500000
v -122.309166 -5.321053 312.500000
v 122.309166 -5.321053 -312.500000
v -122.309166 -5.321053 -437.500000
v -122.309166 -5.321053 -312.500000
v -122.309166 -5.321053 -187.500000
v -122.309166 -5.321053 62.500000
v 122.309166 -5.321053 62.500000
v 122.309166 -5.321053 -437.500000
v 122.309166 -5.321053 -187.500000
v 122.309166 -5.321053 437.500000
v 122.309166 -5.321053 187.500000
v -122.309166 -5.321053 -62.500000
v 122.309166 -5.321053 -62.500000
v -122.309166 -5.321053 437.500000
v -122.309166 -5.321053 187.500000
vt 0.5000 0.5000
vt 0.5000 1.0000
vt 1.0000 1.0000
vt 1.0000 0.5000
vt 0.5000 0.5000
vt 0.5000 1.0000
vt 1.0000 1.0000
vt 1.0000 0.5000
vt 0.5000 0.5000
vt 0.5000 1.0000
vt 1.0000 1.0000
vt 1.0000 0.5000
vt 0.5000 0.5000
vt 0.0000 0.5000
vt 0.0000 1.0000
vt 0.5000 1.0000
vt 0.5000 0.5000
vt 0.0000 0.5000
vt 0.0000 1.0000
vt 0.5000 1.0000
vt 1.0000 0.5000
vt 0.5000 0.5000
vt 0.5000 1.0000
vt 1.0000 1.0000
vt 0.0000 0.5000
vt 0.0000 1.0000
vt 1.0000 0.0000
vt 0.5000 0.0000
vt 0.5000 0.5000
vt 0.5000 1.0000
vt 0.0000 1.0000
vt 0.0000 0.5000
vt 0.5000 0.5000
vt 0.5000 1.0000
vt 0.0000 1.0000
vt 0.0000 0.5000
vt 0.5000 0.5000
vt 1.0000 0.5000
vt 1.0000 1.0000
vt 0.5000 1.0000
vt 0.5000 0.5000
vt 0.5000 1.0000
vt 0.0000 1.0000
vt 0.0000 0.5000
vt 0.5000 0.5000
vt 1.0000 0.5000
vt 1.0000 1.0000
vt 0.5000 1.0000
vt 0.5000 0.5000
vt 0.0000 0.5000
vt 0.0000 1.0000
vt 0.5000 1.0000
vt 0.5000 0.5000
vt 1.0000 0.5000
vt 1.0000 1.0000
vt 0.5000 1.0000
vt 0.5000 0.5000
vt 0.5000 1.0000
vt 1.0000 1.0000
vt 1.0000 0.5000
vt 0.5000 0.0000
vt 1.0000 0.0000
vt 0.0000 0.0000
vt 0.0000 0.0000
vt 0.5000 0.0000
vt 0.0000 0.0000
vt 0.0000 0.5000
vt 0.0000 1.0000
vt 1.0000 0.0000
vt 1.0000 0.0000
vt 0.5000 0.0000
vt 1.0000 0.0000
vt 1.0000 0.5000
vt 0.0000 0.0000
vt 0.0000 0.0000
vt 1.0000 0.0000
vt 1.0000 1.0000
vt 0.5000 0.0000
vt 0.0000 0.0000
vt 0.5000 0.0000
vt 0.5000 0.5000
vt 0.0000 0.5000
vt 0.0000 0.0000
vt 0.0000 0.0000
vt 0.5000 0.5000
vt 0.5000 1.0000
vt 1.0000 0.0000
vt 1.0000 0.0000
vt 0.5000 1.0000
vt 0.0000 1.0000
vt 0.0000 0.0000
vt 0.5000 0.0000
vt 0.5000 0.0000
vt 1.0000 0.0000
vn 0.0000 1.0000 0.0000
s 1
f 85/1/1 50/2/1 6/3/1 51/4/1
f 84/5/1 49/6/1 32/7/1 28/8/1
f 83/9/1 10/10/1 61/11/1 13/12/1
f 82/13/1 12/14/1 60/15/1 11/16/1
f 81/17/1 46/18/1 7/19/1 47/20/1
f 22/21/1 80/22/1 45/23/1 54/24/1
f 80/22/1 27/25/1 34/26/1 45/23/1
f 56/27/1 52/28/1 80/22/1 22/21/1
f 79/29/1 41/30/1 8/31/1 42/32/1
f 78/33/1 40/34/1 36/35/1 26/36/1
f 77/37/1 68/38/1 63/39/1 29/40/1
f 76/41/1 24/42/1 64/43/1 67/44/1
f 75/45/1 31/46/1 9/47/1 35/48/1
f 74/49/1 17/50/1 57/51/1 16/52/1
f 73/53/1 25/54/1 38/55/1 30/56/1
f 72/57/1 15/58/1 58/59/1 18/60/1
f 18/60/1 58/59/1 40/34/1 78/33/1
f 69/61/1 65/62/1 68/38/1 77/37/1
f 69/61/1 76/41/1 67/44/1 65/63/1
f 62/64/1 44/65/1 75/45/1 12/14/1
f 44/65/1 79/29/1 42/32/1 4/66/1
f 48/67/1 77/37/1 29/40/1 3/68/1
f 13/12/1 61/11/1 41/30/1 79/29/1
f 62/69/1 13/12/1 79/29/1 44/65/1
f 59/70/1 18/60/1 78/33/1 43/71/1
f 1/72/1 39/73/1 76/41/1 69/61/1
f 1/74/1 69/61/1 77/37/1 48/67/1
f 12/14/1 75/45/1 35/48/1 60/15/1
f 43/71/1 78/33/1 26/36/1 37/75/1
f 44/65/1 4/76/1 31/46/1 75/45/1
f 39/73/1 5/77/1 24/42/1 76/41/1
f 14/78/1 59/79/1 17/50/1 74/49/1
f 31/46/1 74/49/1 16/52/1 9/47/1
f 42/32/1 8/31/1 15/58/1 72/57/1
f 19/80/1 71/81/1 23/82/1 56/83/1
f 2/84/1 19/80/1 70/85/1 46/18/1
f 4/76/1 14/78/1 74/49/1 31/46/1
f 14/78/1 72/57/1 18/60/1 59/70/1
f 17/50/1 73/53/1 30/56/1 57/51/1
f 46/18/1 70/85/1 21/86/1 7/19/1
f 43/71/1 37/87/1 25/54/1 73/53/1
f 2/88/1 51/4/1 71/81/1 19/80/1
f 4/66/1 42/32/1 72/57/1 14/78/1
f 71/81/1 20/89/1 55/90/1 23/82/1
f 59/79/1 43/71/1 73/53/1 17/50/1
f 19/80/1 56/27/1 22/21/1 70/85/1
f 51/4/1 6/3/1 20/89/1 71/81/1
f 70/85/1 22/21/1 54/24/1 21/86/1
f 52/28/1 33/91/1 27/25/1 80/22/1
f 68/38/1 81/17/1 47/20/1 63/39/1
f 65/62/1 53/92/1 81/17/1 68/38/1
f 53/92/1 2/84/1 46/18/1 81/17/1
f 39/73/1 82/13/1 11/16/1 5/77/1
f 1/72/1 66/93/1 82/13/1 39/73/1
f 66/93/1 62/64/1 12/14/1 82/13/1
f 66/93/1 83/9/1 13/12/1 62/69/1
f 1/74/1 48/67/1 83/9/1 66/93/1
f 48/67/1 3/68/1 10/10/1 83/9/1
f 52/28/1 84/5/1 28/8/1 33/94/1
f 56/83/1 23/82/1 84/5/1 52/28/1
f 23/82/1 55/90/1 49/6/1 84/5/1
f 53/92/1 85/1/1 51/4/1 2/88/1
f 65/63/1 67/44/1 85/1/1 53/92/1
f 67/44/1 64/43/1 50/2/1 85/1/1
